<svg width="1055" height="190" viewBox="0 0 1055 190" fill="none" xmlns="http://www.w3.org/2000/svg">
<path d="M104.96 6.10352e-05C133.291 6.10352e-05 155.733 6.2294 172.288 18.6881C188.843 31.1467 197.12 45.3974 197.12 61.4401C197.12 68.2667 193.707 71.6801 186.88 71.6801H154.88C148.736 71.6801 143.616 68.2667 139.52 61.4401C131.499 48.6401 119.979 42.2401 104.96 42.2401C90.624 42.2401 79.36 46.7627 71.168 55.8081C62.976 64.6827 58.88 77.6534 58.88 94.7201C58.88 111.787 62.976 124.843 71.168 133.888C79.36 142.763 90.624 147.2 104.96 147.2C121.685 147.2 134.059 139.947 142.08 125.44C145.835 118.613 150.955 115.2 157.44 115.2H189.44C196.267 115.2 199.68 118.613 199.68 125.44C199.68 142.165 191.147 157.013 174.08 169.984C157.013 182.955 133.973 189.44 104.96 189.44C71.5093 189.44 45.6533 180.992 27.392 164.096C9.13065 147.029 -1.90735e-05 123.904 -1.90735e-05 94.7201C-1.90735e-05 65.5361 9.13065 42.4961 27.392 25.6001C45.6533 8.5334 71.5093 6.10352e-05 104.96 6.10352e-05ZM358.49 89.6001V92.1601C359.002 92.3307 359.685 92.5867 360.538 92.9281C361.391 93.2694 363.098 94.2934 365.658 96.0001C368.389 97.7067 371.034 99.7547 373.594 102.144C376.325 104.533 379.482 108.032 383.066 112.64C386.65 117.077 389.978 122.197 393.05 128L418.65 175.36C419.674 177.408 419.589 179.456 418.394 181.504C417.37 183.381 415.322 184.32 412.25 184.32H372.57C364.719 184.32 359.173 181.333 355.93 175.36L330.33 128C327.941 123.733 325.125 120.576 321.882 118.528C318.639 116.309 313.775 115.2 307.29 115.2H284.25V175.36C284.25 177.92 283.397 180.053 281.69 181.76C279.983 183.467 277.85 184.32 275.29 184.32H236.89C234.33 184.32 232.197 183.467 230.49 181.76C228.783 180.053 227.93 177.92 227.93 175.36V14.0801C227.93 11.5201 228.783 9.38673 230.49 7.68005C232.197 5.97339 234.33 5.12006 236.89 5.12006H275.29C277.85 5.12006 279.983 5.97339 281.69 7.68005C283.397 9.38673 284.25 11.5201 284.25 14.0801V71.6801H303.45C309.935 71.6801 314.799 70.6561 318.042 68.6081C321.285 66.3894 324.101 63.1467 326.49 58.8801L350.81 14.0801C354.053 8.10673 359.599 5.12006 367.45 5.12006H407.13C410.202 5.12006 412.25 6.14406 413.274 8.19206C414.469 10.0694 414.554 12.0321 413.53 14.0801L389.21 58.8801C385.114 66.3894 380.506 72.7041 375.386 77.8241C370.266 82.9441 366.17 86.1867 363.098 87.5521L358.49 89.6001ZM619.07 55.0401C619.07 62.5494 616.937 69.1201 612.67 74.7521C608.403 80.2134 604.137 83.7974 599.87 85.5041L593.47 88.3201V90.8801C594.494 91.0507 595.859 91.3921 597.566 91.9041C599.273 92.4161 602.345 93.6961 606.782 95.7441C611.219 97.7921 615.145 100.267 618.558 103.168C621.971 105.899 625.043 109.824 627.774 114.944C630.505 120.064 631.87 125.696 631.87 131.84C631.87 146.859 625.214 159.403 611.902 169.472C598.761 179.371 579.39 184.32 553.79 184.32H451.39C448.83 184.32 446.697 183.467 444.99 181.76C443.283 180.053 442.43 177.92 442.43 175.36V14.0801C442.43 11.5201 443.283 9.38673 444.99 7.68005C446.697 5.97339 448.83 5.12006 451.39 5.12006H543.55C568.467 5.12006 587.241 9.81339 599.87 19.2001C612.67 28.5867 619.07 40.5334 619.07 55.0401ZM553.79 112.64H498.75V143.36H553.79C559.934 143.36 564.627 141.995 567.87 139.264C571.283 136.363 572.99 132.608 572.99 128C572.99 123.392 571.283 119.723 567.87 116.992C564.627 114.091 559.934 112.64 553.79 112.64ZM543.55 46.0801H498.75V71.6801H543.55C554.643 71.6801 560.19 67.4134 560.19 58.8801C560.19 50.3467 554.643 46.0801 543.55 46.0801ZM723.418 133.888C731.61 142.763 742.874 147.2 757.21 147.2C771.546 147.2 782.81 142.763 791.002 133.888C799.194 124.843 803.29 111.787 803.29 94.7201C803.29 77.6534 799.194 64.6827 791.002 55.8081C782.81 46.7627 771.546 42.2401 757.21 42.2401C742.874 42.2401 731.61 46.7627 723.418 55.8081C715.226 64.6827 711.13 77.6534 711.13 94.7201C711.13 111.787 715.226 124.843 723.418 133.888ZM679.642 25.6001C697.903 8.5334 723.759 6.10352e-05 757.21 6.10352e-05C790.661 6.10352e-05 816.517 8.5334 834.778 25.6001C853.039 42.4961 862.17 65.5361 862.17 94.7201C862.17 123.904 853.039 147.029 834.778 164.096C816.517 180.992 790.661 189.44 757.21 189.44C723.759 189.44 697.903 180.992 679.642 164.096C661.381 147.029 652.25 123.904 652.25 94.7201C652.25 65.5361 661.381 42.4961 679.642 25.6001ZM1054.33 14.0801V39.6801C1054.33 42.2401 1053.48 44.3734 1051.77 46.0801C1050.06 47.7867 1047.93 48.6401 1045.37 48.6401H991.61V175.36C991.61 177.92 990.757 180.053 989.05 181.76C987.343 183.467 985.21 184.32 982.65 184.32H944.25C941.69 184.32 939.557 183.467 937.85 181.76C936.143 180.053 935.29 177.92 935.29 175.36V48.6401H881.53C878.97 48.6401 876.837 47.7867 875.13 46.0801C873.423 44.3734 872.57 42.2401 872.57 39.6801V14.0801C872.57 11.5201 873.423 9.38673 875.13 7.68005C876.837 5.97339 878.97 5.12006 881.53 5.12006H1045.37C1047.93 5.12006 1050.06 5.97339 1051.77 7.68005C1053.48 9.38673 1054.33 11.5201 1054.33 14.0801Z" fill="#7D39EB"/>
</svg>
